<svg width="20" height="16" viewBox="0 0 20 16" fill="none" xmlns="http://www.w3.org/2000/svg">
<path fill-rule="evenodd" clip-rule="evenodd" d="M13.6 16H6.4C4.15979 16 3.03969 16 2.18404 15.564C1.43139 15.1805 0.819467 14.5686 0.435974 13.816C0 12.9603 0 11.8402 0 9.6V6.4C0 4.15979 0 3.03969 0.435974 2.18404C0.819467 1.43139 1.43139 0.819467 2.18404 0.435974C3.03969 0 4.15979 0 6.4 0H13.6C15.8402 0 16.9603 0 17.816 0.435974C18.5686 0.819467 19.1805 1.43139 19.564 2.18404C20 3.03969 20 4.15979 20 6.4V9.6C20 11.8402 20 12.9603 19.564 13.816C19.1805 14.5686 18.5686 15.1805 17.816 15.564C16.9603 16 15.8402 16 13.6 16ZM4.5547 3.16795C4.09517 2.8616 3.4743 2.98577 3.16795 3.4453C2.8616 3.90483 2.98577 4.5257 3.4453 4.83205L7.35222 7.43678C8.0293 7.88913 8.57335 8.25259 9.18437 8.39901C9.72053 8.5275 10.2795 8.5275 10.8156 8.39901C11.4267 8.25259 11.9707 7.88913 12.6478 7.43678L16.5547 4.83205C17.0142 4.5257 17.1384 3.90483 16.8321 3.4453C16.5257 2.98577 15.9048 2.8616 15.4453 3.16795L11.6641 5.68875C10.7968 6.26692 10.5679 6.40175 10.3496 6.45407C10.1198 6.50914 9.88023 6.50914 9.65044 6.45407C9.43209 6.40175 9.20315 6.26692 8.3359 5.68875L4.5547 3.16795Z" fill="#99A1AD"/>
</svg>
