<svg width="21" height="18" viewBox="0 0 21 18" fill="none" xmlns="http://www.w3.org/2000/svg">
<path d="M16.0705 2.01673L3.42043 7.19175C1.53655 7.96243 0.594603 8.34777 0.58909 9.01311C0.583576 9.67844 1.51901 10.0793 3.38986 10.8811L3.95445 11.1231C4.95447 11.5517 5.45447 11.766 5.97074 11.7127C6.487 11.6593 6.93266 11.3474 7.82398 10.7234L10.562 8.80684C12.6098 7.37336 13.6337 6.65662 13.9303 6.96846C14.2268 7.2803 13.4595 8.26687 11.9248 10.24L10.0752 12.618C9.57574 13.2602 9.32599 13.5813 9.39499 13.9194C9.46399 14.2575 9.81959 14.455 10.5308 14.8502L12.9991 16.2214C15.2735 17.485 16.4107 18.1168 17.3474 17.6602C18.284 17.2036 18.4869 15.9186 18.8927 13.3487L20.1697 5.26126C20.5377 2.93016 20.7218 1.76461 20.0343 1.2205C19.3469 0.676382 18.2548 1.12316 16.0705 2.01673Z" fill="#99A1AD"/>
</svg>
