<svg width="28" height="28" viewBox="0 0 28 28" fill="none" xmlns="http://www.w3.org/2000/svg"><path d="M14 28C21.732 28 28 21.732 28 14C28 6.26801 21.732 0 14 0C6.26801 0 0 6.26801 0 14C0 21.732 6.26801 28 14 28Z" fill="#22252A"></path><path fill-rule="evenodd" clip-rule="evenodd" d="M10.1054 9.25171H17.9576C18.2354 9.25171 18.513 9.29251 18.8031 9.42776C19.1508 9.58981 19.3352 9.84536 19.4644 10.0343C19.4745 10.049 19.4839 10.0642 19.4926 10.0797C19.6445 10.3501 19.7228 10.642 19.7228 10.9561C19.7228 11.2545 19.6518 11.5796 19.4926 11.8629C19.4911 11.8656 19.4895 11.8683 19.488 11.871L14.5271 20.3928C14.4177 20.5807 14.2163 20.696 13.9989 20.6952C13.7814 20.6944 13.5809 20.5777 13.4728 20.389L8.60303 11.8854C8.60163 11.8832 8.60023 11.8808 8.59883 11.8785C8.48738 11.6949 8.31503 11.4109 8.28488 11.0443C8.25718 10.7073 8.33293 10.3696 8.50228 10.0768C8.67163 9.78396 8.92658 9.54986 9.23323 9.40656C9.56203 9.25291 9.89523 9.25171 10.1054 9.25171ZM13.3923 10.4691H10.1054C9.88943 10.4691 9.80653 10.4824 9.74858 10.5095C9.66843 10.5469 9.60113 10.6084 9.55613 10.6863C9.51113 10.7641 9.49078 10.8543 9.49818 10.9446C9.50243 10.9964 9.52353 11.0556 9.64798 11.2608C9.65058 11.2651 9.65313 11.2695 9.65563 11.2738L13.3923 17.7988V10.4691ZM14.6097 10.4691V17.831L18.433 11.2635C18.4761 11.1851 18.5054 11.0718 18.5054 10.9561C18.5054 10.8622 18.4859 10.7807 18.4424 10.6967C18.3968 10.6311 18.369 10.5963 18.3457 10.5725C18.3258 10.5522 18.3104 10.5413 18.2887 10.5312C18.1983 10.489 18.1058 10.4691 17.9576 10.4691H14.6097Z" fill="white"></path></svg>
