<svg width="16" height="14" viewBox="0 0 16 14" fill="none" xmlns="http://www.w3.org/2000/svg">
<path fill-rule="evenodd" clip-rule="evenodd" d="M9.83855 12.0186L13.8648 5.4896C14.9707 3.69621 15.5237 2.79952 15.4611 2.06026C15.4066 1.4158 15.0773 0.825974 14.5574 0.441281C13.961 0 12.9075 0 10.8006 0H5.19949C3.09253 0 2.03904 0 1.44265 0.441281C0.92273 0.825974 0.593499 1.4158 0.538957 2.06026C0.476393 2.79952 1.02936 3.69621 2.13528 5.4896L6.1615 12.0186C6.77009 13.0055 7.07439 13.499 7.46527 13.6676C7.80657 13.8148 8.19348 13.8148 8.53478 13.6676C8.92566 13.499 9.22996 13.0055 9.83855 12.0186ZM7.20003 1.60003V10.6499L2.62126 3.18373C2.30384 2.66615 2.14514 2.40736 2.16356 2.1941C2.17962 2.00817 2.27481 1.83811 2.42491 1.72722C2.59709 1.60003 2.90066 1.60003 3.50782 1.60003H7.20003ZM8.80003 10.65V1.5999H12.4923C13.0994 1.5999 13.403 1.5999 13.5752 1.7271C13.7253 1.83799 13.8205 2.00804 13.8365 2.19397C13.8549 2.40723 13.6962 2.66601 13.3788 3.18358L8.80003 10.65Z" fill="#99A1AD"/>
</svg>
