<svg width="14" height="14" viewBox="0 0 14 14" fill="none" xmlns="http://www.w3.org/2000/svg">
<path fill-rule="evenodd" clip-rule="evenodd" d="M14 7C14 10.866 10.866 14 7 14C3.13401 14 0 10.866 0 7C0 3.13401 3.13401 0 7 0C10.866 0 14 3.13401 14 7ZM8 10C8 10.5523 7.55228 11 7 11C6.44772 11 6 10.5523 6 10C6 9.44771 6.44772 9 7 9C7.55228 9 8 9.44771 8 10ZM7 3C6.45598 3 6.02277 3.45542 6.04994 3.99875L6.21255 7.25094C6.23353 7.67055 6.57986 8 7 8C7.42014 8 7.76647 7.67055 7.78745 7.25094L7.95006 3.99875C7.97723 3.45541 7.54402 3 7 3Z" fill="white"/>
</svg>
