<svg width="18" height="18" viewBox="0 0 18 18" fill="none" xmlns="http://www.w3.org/2000/svg">
<path d="M0.323382 16.7065L0.78503 14.8599C0.865045 14.5399 0.905052 14.3799 0.969387 14.2306C1.0265 14.0982 1.09778 13.9723 1.18198 13.8552C1.27682 13.7232 1.39346 13.6066 1.62674 13.3733L13.5858 1.41427C14.0808 0.919248 14.3283 0.671737 14.6137 0.579002C14.8648 0.497429 15.1352 0.497429 15.3863 0.579002C15.6717 0.671737 15.9192 0.919248 16.4142 1.41427L16.5858 1.58584C17.0808 2.08086 17.3283 2.32837 17.4211 2.61378C17.5026 2.86484 17.5026 3.13527 17.4211 3.38633C17.3283 3.67174 17.0808 3.91925 16.5858 4.41427L4.62674 16.3733C4.39347 16.6066 4.27682 16.7232 4.14489 16.8181C4.02776 16.9023 3.90187 16.9736 3.76941 17.0307C3.62023 17.095 3.46022 17.135 3.14026 17.215L1.29352 17.6767C0.866889 17.7833 0.653543 17.8367 0.504865 17.7784C0.375098 17.7276 0.272429 17.625 0.221612 17.4952C0.163388 17.3465 0.216719 17.1332 0.323382 16.7065Z" fill="#99A1AD"/>
<path d="M3.65128 6.65158L1.41402 4.41432C0.919004 3.9193 0.671495 3.67179 0.57876 3.38638C0.497186 3.13533 0.497186 2.86489 0.57876 2.61384C0.671494 2.32843 0.919011 2.08091 1.41402 1.5859L1.5856 1.41432C2.08062 0.919302 2.32813 0.671792 2.61354 0.579057C2.8646 0.497484 3.13503 0.497484 3.38608 0.579057C3.67149 0.671792 3.919 0.919303 4.41403 1.41432L6.65128 3.65158C6.94829 3.94859 7.0968 4.0971 7.15244 4.26835C7.20139 4.41898 7.20139 4.58124 7.15244 4.73187C7.0968 4.90312 6.9483 5.05163 6.65129 5.34863L5.34834 6.65158C5.05133 6.94859 4.90282 7.0971 4.73158 7.15274C4.58094 7.20169 4.41868 7.20169 4.26805 7.15274C4.0968 7.0971 3.94829 6.94859 3.65128 6.65158Z" fill="#99A1AD"/>
<path d="M17.2148 14.86L17.6764 16.7066C17.7831 17.1332 17.8364 17.3466 17.7782 17.4952C17.7274 17.625 17.6247 17.7277 17.4949 17.7785C17.3463 17.8367 17.1329 17.7834 16.7063 17.6767L14.8595 17.215C14.5396 17.1351 14.3796 17.0951 14.2304 17.0307C14.0979 16.9736 13.972 16.9023 13.8549 16.8181C13.723 16.7233 13.6063 16.6066 13.3731 16.3734L11.3483 14.3486C11.0513 14.0516 10.9028 13.9031 10.8472 13.7319C10.7982 13.5812 10.7982 13.419 10.8472 13.2683C10.9028 13.0971 11.0513 12.9486 11.3483 12.6516L12.6513 11.3486C12.9483 11.0516 13.0968 10.9031 13.2681 10.8475C13.4187 10.7985 13.5809 10.7985 13.7316 10.8475C13.9028 10.9031 14.0513 11.0516 14.3483 11.3486L16.3731 13.3734C16.6064 13.6067 16.723 13.7233 16.8178 13.8552C16.902 13.9723 16.9733 14.0982 17.0304 14.2307C17.0948 14.3799 17.1348 14.54 17.2148 14.86Z" fill="#99A1AD"/>
</svg>
