<svg width="20" height="20" viewBox="0 0 20 20" fill="none" xmlns="http://www.w3.org/2000/svg">
<path d="M13.0003 18.1798C13.0003 18.814 13.0003 19.131 13.2328 19.2783C13.4652 19.4255 13.7329 19.299 14.2682 19.046C17.6561 17.4446 20 13.996 20 10C20 4.47715 15.5228 0 10 0C4.47715 0 0 4.47715 0 10C0 13.9963 2.34421 17.4451 5.73254 19.0463C6.26782 19.2993 6.53547 19.4258 6.7679 19.2785C7.00033 19.1313 7.00033 18.8142 7.00033 18.1801V17.1938C7.00033 17.1938 6.57313 17.2939 6.07211 17.2939C4.66927 17.2939 4.06805 16.0922 3.96785 15.3912C3.88675 15.067 3.74001 14.8084 3.52763 14.5623C3.42623 14.4448 3.28716 14.3709 3.14505 14.3085C3.03061 14.2583 3 14.2182 3 14.15C3 14 3.26643 13.9892 3.36663 13.9892C3.96785 13.9892 4.46887 14.6902 4.66927 14.9906C5.17029 15.7918 5.7715 15.9921 6.07211 15.9921C6.47293 15.9921 6.77353 15.8919 6.97394 15.7918C7.07414 15.0908 7.37475 14.3898 7.97597 13.9892C5.6713 13.4885 3.96785 12.1866 3.96785 9.98347C3.96785 8.88189 4.46886 7.78031 5.17029 6.97916C5.07008 6.77887 4.96988 6.27816 4.96988 5.57715C4.96988 5.17658 4.96988 4.57572 5.27049 3.97485C5.27049 3.97485 6.67333 3.97485 8.07617 5.27672C8.57719 5.07643 9.27861 4.97629 9.98003 4.97629C10.6815 4.97629 11.3829 5.07643 11.9841 5.27672C13.2867 3.97485 14.7898 3.97485 14.7898 3.97485C14.9902 4.57572 14.9902 5.17658 14.9902 5.57715C14.9902 6.3783 14.89 6.77887 14.7898 6.97916C15.4912 7.78031 15.9922 8.78174 15.9922 9.98347C15.9922 12.1866 14.2888 13.4885 11.9841 13.9892C12.5853 14.4899 13.0003 15.3912 13.0003 16.2925V18.1798Z" fill="#99A1AD"/>
</svg>
