<svg width="95" height="22" viewBox="0 0 95 22" fill="none" xmlns="http://www.w3.org/2000/svg">
<path d="M5.069 21.0001V4.83412H0V0.998121H14.248V4.83412H9.179V21.0001H5.069Z" fill="#48B5FF"/>
<path d="M16.0183 21.0001L20.9229 0.998121H26.1289L31.0883 21.0001H26.8961L25.9371 16.4791H21.1695L20.2105 21.0001H16.0183ZM21.8545 13.1911H25.2247L24.2657 8.36872C24.1378 7.67459 24.0008 6.98959 23.8547 6.31372C23.7268 5.61959 23.6264 5.08072 23.5533 4.69712C23.4802 5.08072 23.3798 5.61045 23.2519 6.28632C23.1423 6.96219 23.0144 7.64719 22.8683 8.34132L21.8545 13.1911Z" fill="#48B5FF"/>
<path d="M40.0922 21.2741C38.7587 21.2741 37.5897 21.0275 36.585 20.5343C35.5803 20.0229 34.7949 19.3196 34.2286 18.4245C33.6806 17.5112 33.4066 16.4517 33.4066 15.2461V6.75212C33.4066 5.52825 33.6806 4.46879 34.2286 3.57372C34.7949 2.67865 35.5803 1.98452 36.585 1.49132C37.5897 0.979854 38.7587 0.724121 40.0922 0.724121C41.4439 0.724121 42.613 0.979854 43.5994 1.49132C44.6041 1.98452 45.3804 2.67865 45.9284 3.57372C46.4947 4.46879 46.7778 5.52825 46.7778 6.75212H42.6678C42.6678 5.94839 42.4395 5.33645 41.9828 4.91632C41.5444 4.49619 40.9142 4.28612 40.0922 4.28612C39.2702 4.28612 38.6309 4.49619 38.1742 4.91632C37.7358 5.33645 37.5166 5.94839 37.5166 6.75212V15.2461C37.5166 16.0316 37.7358 16.6435 38.1742 17.0819C38.6309 17.5021 39.2702 17.7121 40.0922 17.7121C40.9142 17.7121 41.5444 17.5021 41.9828 17.0819C42.4395 16.6435 42.6678 16.0316 42.6678 15.2461H46.7778C46.7778 16.4517 46.4947 17.5112 45.9284 18.4245C45.3804 19.3196 44.6041 20.0229 43.5994 20.5343C42.613 21.0275 41.4439 21.2741 40.0922 21.2741Z" fill="#48B5FF"/>
<path d="M54.3569 21.0001V4.83412H49.2879V0.998121H63.5359V4.83412H58.4669V21.0001H54.3569Z" fill="#48B5FF"/>
<path d="M67 11H75V2H81V20H87V11H95" stroke="#E1E5EB" stroke-width="2"/>
</svg>
