<!DOCTYPE svg PUBLIC "-//W3C//DTD SVG 1.1//EN" "http://www.w3.org/Graphics/SVG/1.1/DTD/svg11.dtd">
<!-- Uploaded to: SVG Repo, www.svgrepo.com, Transformed by: SVG Repo Mixer Tools -->
<svg fill="#919191" width="800px" height="800px" viewBox="0 0 96 96" xmlns="http://www.w3.org/2000/svg">
<g id="SVGRepo_bgCarrier" stroke-width="0"/>
<g id="SVGRepo_tracerCarrier" stroke-linecap="round" stroke-linejoin="round"/>
<g id="SVGRepo_iconCarrier"> <path d="M44 9.553c-1.925.812-4.86 3.056-6.523 4.988-2.862 3.327-3.196 3.453-6.299 2.371-7.117-2.481-16.58 2.241-20.581 10.27-4.402 8.833-2.61 17.282 4.996 23.559 4.854 4.006 5.66 4.812 9.666 9.666 5.493 6.656 13.034 8.936 20.741 6.269 2.85-.986 4.266-.939 7.623.253 5.57 1.978 11.336.245 16.708-5.021C72.524 59.759 74.906 58 75.624 58c2.279 0 8.621-6.331 10.511-10.491C91.4 35.919 83.178 22.041 70 20.273c-2.2-.295-4-.926-4-1.402 0-2.12-7.482-8.911-10.848-9.846-4.829-1.341-6.956-1.24-11.152.528m.838 7.973c-1.621.88-3.336 3.21-4.386 5.96-2.008 5.258-1.53 5.046-5.678 2.518-10.81-6.591-23.486 5.211-17.138 15.956 1.765 2.989 6.195 6.04 8.768 6.04A1.6 1.6 0 0 1 28 49.596c0 7.743 11.474 13.045 18.381 8.492 2.83-1.866 2.935-1.866 6 .002 5.341 3.258 11.783 1.708 14.573-3.505C67.715 53.163 68.98 52 69.765 52 74.454 52 80 45.498 80 40c0-7.684-6.192-12.605-14.615-11.615-5.226.614-5.385.56-5.385-1.829 0-8.107-8.042-12.897-15.162-9.03M26 74c-3.585 3.585-1.019 10 4 10 2.576 0 6-3.424 6-6 0-1.1-.9-2.9-2-4s-2.9-2-4-2-2.9.9-4 2m-12.96 7.452c-2.657 3.201 1.245 8.118 4.71 5.936C21.212 85.207 19.979 80 16 80c-.965 0-2.297.653-2.96 1.452" fill-rule="evenodd"/> </g>
</svg>