<svg width="18" height="18" viewBox="0 0 18 18" fill="none" xmlns="http://www.w3.org/2000/svg">
<path fill-rule="evenodd" clip-rule="evenodd" d="M15.816 17.564C14.9603 18 13.8402 18 11.6 18H6.4C4.15979 18 3.03969 18 2.18404 17.564C1.43139 17.1805 0.819467 16.5686 0.435974 15.816C0 14.9603 0 13.8402 0 11.6V6.4C0 4.15979 0 3.03969 0.435974 2.18404C0.819467 1.43139 1.43139 0.819467 2.18404 0.435974C3.03969 0 4.15979 0 6.4 0H11.6C13.8402 0 14.9603 0 15.816 0.435974C16.5686 0.819467 17.1805 1.43139 17.564 2.18404C18 3.03969 18 4.15979 18 6.4V11.6C18 13.8402 18 14.9603 17.564 15.816C17.1805 16.5686 16.5686 17.1805 15.816 17.564ZM4 13C3.44772 13 3 13.4477 3 14C3 14.5523 3.44772 15 4 15H11C11.5523 15 12 14.5523 12 14C12 13.4477 11.5523 13 11 13H4ZM3 10C3 9.44771 3.44772 9 4 9H13C13.5523 9 14 9.44771 14 10C14 10.5523 13.5523 11 13 11H4C3.44772 11 3 10.5523 3 10ZM4 5C3.44772 5 3 5.44772 3 6C3 6.55228 3.44772 7 4 7H9C9.55228 7 10 6.55228 10 6C10 5.44772 9.55229 5 9 5H4Z" fill="#99A1AD"/>
</svg>
